<?xml version="1.0" encoding="UTF-8"?>
<svg width="178px" height="58px" viewBox="0 0 178 58" version="1.1" xmlns="http://www.w3.org/2000/svg" xmlns:xlink="http://www.w3.org/1999/xlink">
    <title>logo-with-bg</title>
    <g id="Page-1" stroke="none" stroke-width="1" fill="none" fill-rule="evenodd">
        <g id="logo-with-bg" fill-rule="nonzero">
            <rect id="Rectangle" fill="#1FD3C6" x="0" y="0" width="177.6" height="57.6" rx="4.8"></rect>
            <path d="M50.557,43.014 C48.571,43.014 47.457,41.634 47.457,41.634 C44.407,38.245 49.361,33.211 49.361,33.211 L58.448,22.614 L58.448,22.614 C58.8639907,22.1180592 59.2495505,21.6552801 59.5771432,21.2561234 L48.963,21.257 C47.203,21.257 45.769,19.753 45.769,17.903 C45.769,16.053 47.203,14.547 48.963,14.547 L58.051,14.547 C58.2658515,14.5935347 58.4713902,14.6454609 58.6662815,14.7025362 C58.4635997,14.6423488 58.2582758,14.5904386 58.051,14.547 L64.233,14.547 C66.219,14.547 67.334,15.927 67.334,15.927 C70.384,19.314 65.43,24.351 65.43,24.351 L55.367,36.12 C55.109,36.434 54.877,36.714 54.692,36.948 C54.842,36.762 55.017,36.544 55.218,36.305 L65.832,36.302 C67.592,36.302 69.022,37.809 69.022,39.659 C69.022,41.509 67.592,43.013 65.832,43.014 L50.557,43.014 Z" id="Combined-Shape" fill="#FFFFFF"></path>
            <path d="M82.062,30.697 L82.067,39.459 C82.0625863,41.4243532 80.4663554,43.0143174 78.501,43.0110141 C77.5567593,43.0136555 76.6502098,42.6407602 75.9811228,41.9744869 C75.3120358,41.3082135 74.9353236,40.4032435 74.934,39.459 C74.9338615,39.4378338 74.9338024,39.4166968 74.9338222,39.3955886 L74.935,18.098 C74.9365895,17.1540121 75.3132495,16.2493486 75.9820622,15.5831616 C76.650875,14.9169746 77.5570132,14.5438761 78.501,14.545991 C80.4363725,14.5438789 82.0184852,16.0891156 82.062,18.024 L82.062,18.024 L82.062,30.697 Z" id="Combined-Shape" fill="#FFFFFF"></path>
            <path d="M111.952333,15.9395826 C114.552548,14.5290092 117.275545,14.529303 117.581,14.539 C124.191,14.541 129.573,19.889 129.59,26.469 C129.59,26.482 129.593,26.493 129.593,26.503 L129.593,26.503 L129.593,39.407 C129.588586,41.4030515 127.968055,43.0182123 125.972,43.0160023 L125.972,43.0160023 L125.956,43.0160023 C125.000517,43.0160023 124.084183,42.6363674 123.408648,41.9606451 C122.733113,41.2849228 122.353735,40.368483 122.354,39.413 L122.354,39.413 L122.354,39.143 L122.358,26.503 C122.358,26.492 122.354,26.482 122.354,26.469 L122.354,26.469 L122.3555,26.487125 L122.3555,26.487125 L122.357,26.503 C122.349,23.887 120.213,21.755 117.584,21.755 C114.96,21.755 112.824,23.881 112.818,26.495 L112.818,26.486567 L112.818,26.469 C112.812894,24.9228545 112.507402,23.4092181 111.93457,22.0057756 L112.061405,22.3316833 C112.551878,23.6423831 112.812404,25.0418539 112.817,26.469 L112.817,39.407 C112.817,39.659 112.793,39.906 112.744,40.142 C112.39348,41.8195009 110.912726,43.0199761 109.199,43.0160098 C108.706,43.0160098 108.234,42.916 107.808,42.738 L107.802,42.738 C107.801,42.736 107.797,42.736 107.797,42.736 C106.481865,42.1901817 105.612018,40.9204958 105.578,39.497 L105.578985,39.2080169 C105.582168,37.2923678 105.583,26.503 105.583,26.503 L105.573,26.503 C105.573,23.886 103.435,21.756 100.809,21.756 C98.178,21.756 96.041,23.887 96.041,26.503 L96.041,26.503 L96.041,39.407 C96.0371375,41.403672 94.415673,43.0193168 92.419,43.0160051 C90.4223919,43.0187654 88.8009648,41.4036039 88.796,39.407 L88.796,39.407 L88.796,26.503 C88.796,22.033 91.278,18.129 94.936,16.076 L94.936,16.076 C94.936,16.076 96.206,15.287 98.094,14.85 C100.943,14.189 105.49,14.356 109.194,17.952 L109.195,17.952 L109.523588,17.644963 C110.191681,17.0433549 110.924544,16.5170891 111.709,16.076 L111.709,16.076 Z" id="Combined-Shape" fill="#FFFFFF"></path>
            <path d="M149.273,14.4 C157.233,14.4 163.706,20.849 163.706,28.777 C163.706,29.209 163.686,29.633 163.653,30.055 C163.637,30.204 163.621,30.348 163.603,30.491 C163.60221,30.4953628 163.601418,30.4997246 163.600623,30.5040856 C162.746107,37.6222591 156.645835,43.16 149.273,43.16 C141.314,43.16 134.837,36.708 134.837,28.78 C134.837,28.405 134.857,28.035 134.887,27.665 C134.888697,27.6506264 134.890422,27.6362614 134.892175,27.6219049 C135.48064,20.232816 141.703381,14.4 149.273,14.4 Z M156.308457,27.04613 L156.354,27.323 C155.649213,23.9746037 152.694766,21.5780011 149.273,21.579 C145.282,21.579 142.04,24.806 142.04,28.78 C142.039728,29.5198913 142.15443,30.2553317 142.38,30.96 C142.553447,31.7107868 142.802499,32.4281288 143.117986,33.1047367 C142.802575,32.4279114 142.553448,31.7101886 142.38,30.959 C143.342254,33.9534345 146.127754,35.9840654 149.273,35.984 C153.259,35.984 156.505,32.753 156.505,28.777 C156.505,28.281 156.454,27.793 156.354,27.323 L156.354,27.323 L156.308457,27.04613 L156.308457,27.04613 Z" id="Combined-Shape" fill="#FFFFFF"></path>
            <path d="M23.3131082,16.3544418 C23.1420533,16.457607 23.017697,16.5747273 22.944,16.654 C23.125,16.407 24.353,14.4 28.084,14.4 C29.984,14.4 32.424,14.955 33.574,17.379 L33.574,17.379 L33.781,17.826 L41.99,38.767 C42.094,39.117 42.172,39.338 42.182,39.857 C42.212,41.721 40.571,43.183 38.807,43.152 L38.807,43.152 C36.635,43.111 35.855,41.389 35.855,41.389 L35.855,41.389 L35.6716546,40.92 L35.852,41.381 C35.685,41.087 34.87,39.308 32.047,37.768 C29.549,36.405 26.314,36.568 23.976,37.812 C21.7222106,39.0089172 21.0548607,40.2424445 20.224238,41.4881673 L20.219,41.5 C20.194,41.566 20.044,41.754 20.044,41.754 C19.523,42.51 18.666,42.975 17.733,43.124 C17.6096667,43.1438095 17.4884739,43.1547392 17.3701327,43.1583008 L17.1945335,43.1583061 C16.1563061,43.127449 15.379,42.561 15.379,42.561 C12.99,40.775 14.264,38.398 14.264,38.398 L14.264,38.398 L22.377,17.723 C22.707,16.888 22.944,16.655 22.944,16.655 C23.0084848,16.5854242 23.1117557,16.4869164 23.2511593,16.3941612 Z M26.7255607,18.2534697 L26.8494018,18.4921318 L26.8494018,18.4921318 L26.989,18.789 L28.058,21.514 L24.3720782,30.9114054 C28.0617422,30.0486027 31.1778147,30.772338 31.745,30.913 L31.745,30.913 L35.1166546,39.507 L26.99,18.789 C26.9016493,18.5922336 26.8137175,18.4155764 26.7255607,18.2534697 Z" id="Combined-Shape" fill="#FFFFFF"></path>
        </g>
    </g>
</svg>