<?xml version="1.0" encoding="utf-8"?>
<!-- Generator: Adobe Illustrator 18.1.0, SVG Export Plug-In . SVG Version: 6.00 Build 0)  -->
<svg version="1.1" id="Warstwa_1" xmlns="http://www.w3.org/2000/svg"  x="0px" y="0px"
	 viewBox="0 0 124 28" enable-background="new 0 0 124 28" xml:space="preserve">
<g id="Shape_51">
	<g>
		<path fill-rule="evenodd" clip-rule="evenodd" fill="#0F3F65" d="M25.9,1.9c-0.7-0.7-1.5-1.1-2.5-1.3l0,0l0,0
			c-0.3,0-0.6-0.1-0.9-0.1c-0.7,0-1.4,0.1-2.2,0.3l0,0l0,0C16.6,1.9,10.2,3.6,8,4.1l0,0l0,0c-0.8,0.2-1.6,0.6-2.2,1l0,0l0,0
			c-1.4,1-2.2,2.5-2.6,4.5L1.6,18c-0.1,0.8-0.2,1.4-0.1,2.1C1.7,20.6,1.8,21,2,21.4c0.1,0.2,0.6,1,0.9,1.4c0.4,0.5,1.1,1,1.7,1.2
			c0.5,0.2,0.9,0.3,1.3,0.4c0.3,0,0.6,0,0.6,0h0c0.4,0,9.2-0.2,11.7-0.3c1.1-0.1,2.8-0.4,4.4-1.5c1.2-0.9,2.8-2.5,3.3-5.6l1.6-10
			c0.2-1.4,0.1-2.5-0.3-3.4C26.8,2.9,26.6,2.6,25.9,1.9z M24.6,4.8c0,0.1,0,0.2,0,0.3c0,0.1,0,0.3,0,0.3c0,0.1,0,0.2,0,0.3l-1.6,9.9
			c-0.7,4.4-3.9,5.3-5.7,5.4c-2.4,0.1-11.5,0.3-11.5,0.3s-0.3,0-0.5,0c-0.2,0-0.4-0.1-0.7-0.2c0,0-0.1,0-0.1,0
			c-0.2-0.1-0.4-0.3-0.5-0.4c-0.2-0.2-0.3-0.5-0.3-0.9c-0.1-0.4,0-0.9,0.1-1.4L5.1,10C5.4,8.6,6,7.5,6.9,6.8c0.5-0.3,1-0.6,1.6-0.7
			c2.2-0.6,8.7-2.3,12.3-3.3c0.8-0.2,1.6-0.3,2.2-0.2c0.7,0.1,1.1,0.4,1.4,1c0,0,0,0,0,0C24.5,3.9,24.6,4.3,24.6,4.8
			C24.6,4.8,24.6,4.8,24.6,4.8z M20.8,4.6c-0.2,0-0.4,0-0.7,0c-0.3,0-0.6,0.1-1,0.2c0,0,0,0,0,0c0,0,0,0,0,0
			c-0.5,0.1-0.9,0.2-1.4,0.3c-0.3,0.1-0.5,0.1-0.8,0.2c-1.3,0.4-2.3,1-3,1.9L14,6.4c-0.9,0.1-2.6,0.4-4.8,0.9
			C8.7,7.5,8.3,7.7,7.9,7.9c-0.8,0.6-1.3,1.4-1.5,2.6l-1.2,6.8c-0.1,0.4-0.1,0.8,0,1.2c0.1,0.3,0.1,0.6,0.3,0.7
			c0.1,0.2,0.3,0.3,0.5,0.4c0.2,0.1,0.7,0.2,1.1,0.2c0.3,0,8.3-0.5,9.5-0.5c0.8,0,1.6-0.2,2.2-0.6c1.3-0.7,2.1-2,2.4-4l0.1-0.9
			c0.3-1.5,0-2.6-0.8-3.2c-0.5-0.4-1.2-0.5-2.1-0.3l-1.9,0.3c-0.5,0.1-0.8,0-1-0.1c-0.1-0.1-0.1-0.4,0-0.8l0.1-0.5
			c0.1-0.5,0.2-0.8,0.5-1c0.2-0.2,0.6-0.3,1.1-0.4c0,0,0.5-0.1,1.4-0.3c0.9-0.2,2-0.4,3.4-0.5l0-0.2C22.1,5.6,21.7,4.8,20.8,4.6z
			 M17.2,13.7c0.4-0.1,0.7,0,0.8,0.2c0.1,0.2,0.2,0.4,0.1,0.8L18,15.3c-0.1,0.4-0.2,0.7-0.5,0.9c-0.3,0.2-0.6,0.3-1.1,0.3
			c-1.5,0.1-8.2,0.6-8.2,0.6c-0.2,0-0.4,0-0.6,0c-0.2-0.1-0.2-0.3-0.2-0.8l0.2-1.4l3.7-0.7l0.4-2.4l-3.6,0.5l0.2-1.4
			c0-0.3,0.1-0.5,0.2-0.7C8.8,10,9,9.9,9.4,9.8L13.1,9C13,9.2,13,9.4,12.9,9.6l-0.2,1.1c-0.1,0.3-0.1,0.7-0.1,1.1
			c0,0.3,0.1,0.6,0.2,1c0.1,0.4,0.4,0.6,0.8,0.9c0.4,0.2,1,0.3,1.7,0.2L17.2,13.7z M37.3,14.8l6.3-0.2L44,12l-6.3-0.2l0.4-2.4
			c0-0.3,0.1-0.6,0.3-0.8c0.2-0.3,0.5-0.4,1.1-0.4h6.2l0.4-2.5c-0.9-0.1-2.3-0.2-4.1-0.3c-1.8-0.1-2.9-0.1-3.1-0.1
			c-0.3,0-0.6,0-0.9,0.1c-0.4,0.1-0.8,0.2-1.1,0.4c-0.8,0.5-1.3,1.3-1.5,2.6L33.7,18c0,0.2,0,0.5,0,0.7c0,1.3,0.7,2.2,2,2.5
			c0.4,0.1,0.6,0.1,0.9,0.1c0.2,0,1.2,0,3.1-0.1c1.9-0.1,3.2-0.2,4-0.3l0.4-2.5h-6.3c-0.1,0-0.2,0-0.2,0c0,0-0.1,0-0.2,0
			c-0.1,0-0.1,0-0.2-0.1c0,0-0.1-0.1-0.1-0.1c-0.2-0.1-0.2-0.4-0.2-0.9L37.3,14.8z M53.1,9.7c-0.5-0.1-1-0.2-1.4-0.2
			c-0.4,0-0.7-0.1-1-0.1c-0.2,0-0.5,0-0.9,0c-0.3,0-0.7,0.1-1,0.1C48.5,9.6,48,9.8,47.6,10c-0.5,0.2-0.9,0.5-1.2,0.9
			c-0.3,0.4-0.7,0.9-1,1.5c-0.3,0.7-0.6,1.5-0.7,2.4c-0.2,0.9-0.3,1.8-0.3,2.8c0,0.9,0.2,1.7,0.6,2.3c0.3,0.5,0.7,0.9,1.2,1.1
			c0.5,0.2,0.9,0.4,1.5,0.4c0.5,0,1-0.1,1.5-0.2c1-0.3,1.7-0.6,2.1-1.2l0.5,1.2h2.4l1.5-10.4C55.1,10.3,54.2,9.9,53.1,9.7z
			 M51.5,17.7c-0.4,0.4-0.8,0.7-1.2,0.8c-0.4,0.2-0.9,0.3-1.5,0.3c-0.6,0-1-0.3-1.2-0.9c-0.1-0.3-0.1-0.6-0.1-1
			c0-0.4,0.1-0.9,0.2-1.5c0.2-1.4,0.6-2.3,1-2.7c0.2-0.2,0.4-0.4,0.6-0.5c0.2-0.1,0.4-0.2,0.7-0.2c0.3-0.1,0.6-0.1,1-0.1
			c0.4,0,0.9,0.1,1.4,0.3L51.5,17.7z M56.8,10.2c-0.6,0.5-0.9,1.2-1.1,2.2l-0.2,1c0,0.3-0.1,0.5-0.1,0.8c0,0.7,0.2,1.3,0.6,1.7
			c0.5,0.6,1.3,0.9,2.4,0.9H61c0.2,0,0.4,0,0.5,0.1c0.1,0.1,0.2,0.3,0.2,0.6l-0.1,0.6c-0.1,0.5-0.4,0.7-0.9,0.7h-5.5l-0.3,1.9
			c0.6,0.4,2.7,0.6,6.4,0.6c0.8,0,1.4-0.2,2-0.5c0.7-0.4,1.1-1.1,1.3-2.2l0.2-1.3c0-0.2,0.1-0.4,0.1-0.7c0-0.6-0.2-1.2-0.5-1.6
			c-0.5-0.6-1.2-0.9-2.3-0.9H59c-0.1,0-0.1,0-0.1,0c0,0-0.1,0-0.1-0.1c-0.1-0.1-0.2-0.3-0.1-0.7l0.1-0.6c0-0.2,0.1-0.4,0.3-0.6
			c0.1-0.1,0.4-0.2,0.8-0.2h5.3l0.3-1.9c-0.6-0.4-2.7-0.6-6.1-0.6C58.2,9.5,57.3,9.8,56.8,10.2z M77.1,10.5c0-0.3,0-0.6-0.1-0.9
			h-2.9c-0.1,1-0.3,1.8-0.6,2.4l-3,6.5c-0.7,0-1.1-0.3-1.1-0.8l-0.7-8.1h-3.2l0.9,8.6c0.1,1,0.4,1.7,1,2.2c0.5,0.5,1.2,0.7,2.1,0.7
			c-0.5,0.9-1,1.7-1.6,2.4c-0.6,0.7-1.3,1.3-2.2,1.7v2.1c0.9-0.2,1.8-0.5,2.6-0.9c1.7-1,3.2-2.8,4.4-5.4l3.8-8.2
			C76.9,12.2,77.1,11.3,77.1,10.5z M86.5,12.6c-0.5-0.5-1.3-0.7-2.3-0.7H82c-0.4,0-0.7,0-1-0.1c-0.2,0-0.3-0.1-0.3-0.1
			c-0.1-0.1-0.1-0.2-0.2-0.3c-0.1-0.1-0.1-0.3-0.1-0.4c0-0.2,0-0.4,0.1-0.6l0.1-0.8c0.1-0.7,0.3-1.1,0.7-1.3C81.6,8.1,82.1,8,82.7,8
			H84c0.8,0,2.2,0.1,4.2,0.2l0.4-2.4c-1.5-0.4-3.3-0.6-5.6-0.6h-0.5c-1.1,0-1.9,0.1-2.7,0.4c-1.3,0.5-2.1,1.6-2.4,3.4l-0.2,1.7
			c0,0.3-0.1,0.5-0.1,0.8s0,0.6,0.1,0.9c0.1,0.6,0.4,1.2,0.9,1.8c0.5,0.6,1.5,0.8,2.7,0.8h2.2c0.4,0,0.7,0.1,0.9,0.2
			c0.2,0.1,0.3,0.3,0.3,0.4c0,0.1,0,0.3,0,0.4s0,0.3,0,0.5l-0.1,0.8c-0.1,0.9-0.9,1.4-2.2,1.4c-2.3,0-4.2-0.1-5.5-0.2l-0.4,2.4
			c1.4,0.4,3.3,0.7,5.9,0.7c0.7,0,1.3,0,1.9-0.1c2.1-0.3,3.2-1.6,3.4-3.8l0.1-1.4c0-0.2,0.1-0.5,0.1-0.8c0-0.3,0-0.7-0.1-1.1
			C87.4,13.6,87,13,86.5,12.6z M92.6,18.9c-0.8,0-1.3-0.2-1.6-0.5c-0.1-0.2-0.2-0.4-0.2-0.8c0-0.3,0-0.7,0.1-1
			c0.5,0.2,1.3,0.3,2.3,0.3c1.6,0,2.8-0.4,3.8-1.1c0.4-0.3,0.8-0.7,1.1-1.3c0.3-0.6,0.5-1.3,0.5-2.1c0-2-1.5-3-4.6-3
			c-1.7,0-2.9,0.3-3.8,0.8c-0.4,0.2-0.8,0.6-1.1,1.1c-0.3,0.5-0.5,0.9-0.7,1.4c-0.2,0.5-0.3,1.2-0.5,2.1c-0.2,0.9-0.3,1.7-0.3,2.5
			c0,2.6,1.1,3.9,3.2,4c0.4,0,0.8,0,1.3,0c1.7,0,3.4-0.2,4.9-0.7l0.4-2.2c-1.5,0.2-2.9,0.4-4.1,0.4H92.6z M91.3,13.8
			c0.1-0.2,0.1-0.4,0.1-0.5c0-0.1,0.1-0.2,0.2-0.4c0.1-0.2,0.2-0.3,0.2-0.4c0.1-0.1,0.2-0.2,0.3-0.3c0.3-0.3,0.8-0.4,1.6-0.4
			c0.6,0,1,0.1,1.3,0.2c0.2,0.2,0.3,0.4,0.3,0.7c0,0.7-0.3,1.3-1,1.6c-0.2,0.1-0.5,0.2-0.8,0.3c-0.3,0.1-0.6,0.1-0.7,0.1
			c-0.2,0-0.4,0-0.7,0c-0.3,0-0.6,0-1-0.1C91.2,14.3,91.3,14,91.3,13.8z M109.2,12.4c0-1.9-1-2.9-3-2.9c-0.6,0-1.1,0.1-1.6,0.3
			c-0.5,0.2-0.9,0.3-1.2,0.5c-0.3,0.1-0.6,0.4-1.2,0.7l-0.4-1.2h-2.5l-1.9,11.6h3.1l1.3-8.3c0.2-0.1,0.4-0.2,0.6-0.3
			c0.7-0.4,1.5-0.7,2.4-0.7c0.7,0,1.1,0.4,1.1,1.1c0,0.1,0,0.3,0,0.5l-1.2,7.7h3.1l1.2-7.7C109.2,13.1,109.2,12.7,109.2,12.4z
			 M118.4,4.2l-1,6.1c-1-0.5-2.2-0.8-3.4-0.8c-1.2,0-2.2,0.3-2.9,1c-0.3,0.3-0.6,0.7-0.9,1.2c-0.3,0.5-0.5,1-0.6,1.5
			c-0.1,0.5-0.3,1.1-0.4,1.8c-0.1,0.7-0.2,1.3-0.2,1.9c0,1.9,0.5,3.3,1.5,4c0.5,0.3,1.1,0.5,1.7,0.5c1.2,0,2.4-0.4,3.6-1.3l0.4,1.2
			h2.5l2.8-17.1H118.4z M116.1,18.1c-0.8,0.5-1.8,0.7-2.9,0.7c-0.8,0-1.2-0.6-1.2-1.7c0-0.4,0.1-1,0.2-1.7c0.3-1.8,0.7-2.9,1.2-3.3
			c0.2-0.2,0.5-0.2,0.9-0.2c1.1,0,2,0.1,2.7,0.4L116.1,18.1z"/>
	</g>
</g>
</svg>
