<svg id="Слой_1" data-name="Слой 1" xmlns="http://www.w3.org/2000/svg" viewBox="0 0 117.5 38.56"><defs><style>.cls-1{fill:#2b3647;}.cls-2{fill:#f5ca19;}</style></defs><title>logo spoko</title><path class="cls-1" d="M9.94,28.32a12.42,12.42,0,0,1-6.15-1.38A9.38,9.38,0,0,1,0,23L4.78,20.8A5.67,5.67,0,0,0,7,23.06a6.35,6.35,0,0,0,3.21.79A4.53,4.53,0,0,0,13,23.08a2.28,2.28,0,0,0,1-1.82,1.18,1.18,0,0,0-.44-.95,4.18,4.18,0,0,0-1.15-.64,9.8,9.8,0,0,0-1.66-.45l-2-.4c-1-.19-1.92-.43-2.85-.69A9.27,9.27,0,0,1,3.4,17a5.66,5.66,0,0,1-1.8-1.82,5.21,5.21,0,0,1-.69-2.79,5.16,5.16,0,0,1,.63-2.46A6.68,6.68,0,0,1,3.33,7.85,8.76,8.76,0,0,1,6.1,6.41a11.66,11.66,0,0,1,3.61-.53,11.38,11.38,0,0,1,5.6,1.25,9.39,9.39,0,0,1,3.53,3.39L14.45,12.6a4.88,4.88,0,0,0-1.91-1.78,5.91,5.91,0,0,0-2.83-.66A4.37,4.37,0,0,0,7,10.86a2,2,0,0,0-.88,1.6c0,.7.43,1.21,1.3,1.51a30.88,30.88,0,0,0,3.82,1,26.48,26.48,0,0,1,2.77.67,10.67,10.67,0,0,1,2.54,1.13,5.81,5.81,0,0,1,1.85,1.82,5.11,5.11,0,0,1,.71,2.79,5.84,5.84,0,0,1-.53,2.35A6.75,6.75,0,0,1,16.91,26a8.68,8.68,0,0,1-2.85,1.69A11.57,11.57,0,0,1,9.94,28.32Z"/><path class="cls-1" d="M34.68,28.32a10.76,10.76,0,0,1-4.2-.8,7.62,7.62,0,0,1-3.09-2.29V38.56H22.26V5.92h5.12V9.21a8.47,8.47,0,0,1,3.08-2.42,9.57,9.57,0,0,1,4.18-.91,11.42,11.42,0,0,1,4.09.76,10.59,10.59,0,0,1,3.52,2.19,10.92,10.92,0,0,1,2.46,3.52,11.52,11.52,0,0,1,.94,4.77,11.25,11.25,0,0,1-1,4.73,11,11,0,0,1-2.5,3.52,10.83,10.83,0,0,1-3.52,2.19A11.12,11.12,0,0,1,34.68,28.32Zm-.84-4.74a6.85,6.85,0,0,0,4.78-1.88,6.32,6.32,0,0,0,1.43-2.08A6.43,6.43,0,0,0,40.57,17a6.31,6.31,0,0,0-.51-2.55,6.17,6.17,0,0,0-1.43-2,7.16,7.16,0,0,0-7.45-1.37,6.29,6.29,0,0,0-3.48,3.45,6.44,6.44,0,0,0-.5,2.51,6.52,6.52,0,0,0,.5,2.55,6.63,6.63,0,0,0,1.38,2.08,6.23,6.23,0,0,0,2.1,1.4A7,7,0,0,0,33.84,23.58Z"/><path class="cls-1" d="M59.58,28.32a11.84,11.84,0,0,1-4.53-.86,11.24,11.24,0,0,1-6.15-6,11.16,11.16,0,0,1,0-8.77,11.22,11.22,0,0,1,6.15-6,11.84,11.84,0,0,1,4.53-.87,11.74,11.74,0,0,1,8.2,3.26,11.17,11.17,0,0,1,2.48,3.57,11.14,11.14,0,0,1,0,8.77,11.1,11.1,0,0,1-2.48,3.57,11.7,11.7,0,0,1-8.2,3.26Zm0-4.85a6.48,6.48,0,0,0,2.56-.5A6.55,6.55,0,0,0,64.2,21.6a6.29,6.29,0,0,0,1.87-4.48A6.29,6.29,0,0,0,64.2,12.6a6.66,6.66,0,0,0-2.06-1.36,6.53,6.53,0,0,0-2.56-.5,6.67,6.67,0,0,0-2.58.5,6.22,6.22,0,0,0-3.42,3.39,6.27,6.27,0,0,0-.5,2.49,6.17,6.17,0,0,0,.5,2.45A6.22,6.22,0,0,0,57,23,6.61,6.61,0,0,0,59.58,23.47Z"/><path class="cls-1" d="M105.92,28.32a11.84,11.84,0,0,1-4.53-.86,11.24,11.24,0,0,1-6.15-6,11.16,11.16,0,0,1,0-8.77,11.22,11.22,0,0,1,6.15-6,11.84,11.84,0,0,1,4.53-.87,11.74,11.74,0,0,1,8.2,3.26,11.17,11.17,0,0,1,2.48,3.57,11.14,11.14,0,0,1,0,8.77,11.1,11.1,0,0,1-2.48,3.57,11.7,11.7,0,0,1-8.2,3.26Zm0-4.85a6.48,6.48,0,0,0,2.56-.5,6.55,6.55,0,0,0,2.06-1.36,6.29,6.29,0,0,0,1.87-4.48,6.29,6.29,0,0,0-1.87-4.52,6.66,6.66,0,0,0-2.06-1.36,6.53,6.53,0,0,0-2.56-.5,6.67,6.67,0,0,0-2.58.5,6.22,6.22,0,0,0-3.42,3.39,6.27,6.27,0,0,0-.5,2.49,6.17,6.17,0,0,0,.5,2.45A6.22,6.22,0,0,0,103.34,23,6.61,6.61,0,0,0,105.92,23.47Z"/><polygon class="cls-1" points="86.58 15.59 95.22 5.92 89.03 5.92 79.51 16.7 74.35 21.86 74.35 28.28 79.51 28.28 79.51 22.59 83.06 18.65 89.75 28.28 95.52 28.28 86.58 15.59"/><polygon class="cls-2" points="79.51 10.51 79.51 0 74.35 0 74.35 15.66 79.51 10.51"/></svg>